<?xml version="1.0" encoding="utf-8"?>
<svg class="xh8yej3 x5yr21d x1c9tyrk xeusxvb x1pahc9y x1ertn4p x1od0jb8 x4u6w88 x1g40iwv" fill="none" height="212" preserveAspectRatio="xMidYMid meet" viewBox="0 0 48 48" width="212" xmlns="http://www.w3.org/2000/svg">
<title>default-contact-refreshed</title>
<path class="xvt3oi1" d="M24 23q-1.857 0-3.178-1.322Q19.5 20.357 19.5 18.5t1.322-3.178T24 14t3.178 1.322Q28.5 16.643 28.5 18.5t-1.322 3.178T24 23m-6.75 10q-.928 0-1.59-.66-.66-.662-.66-1.59v-.9q0-.956.492-1.758A3.3 3.3 0 0 1 16.8 26.87a16.7 16.7 0 0 1 3.544-1.308q1.8-.435 3.656-.436 1.856 0 3.656.436T31.2 26.87q.816.422 1.308 1.223T33 29.85v.9q0 .928-.66 1.59-.662.66-1.59.66z" fill="#B6B6B6"/>
</svg>